<svg width="226" height="235" viewBox="0 0 226 235" fill="none" xmlns="http://www.w3.org/2000/svg">
<g clip-path="url(#clip0_2_157)">
<path fill-rule="evenodd" clip-rule="evenodd" d="M116.57 87.33H132.77V32.33H195.07C195.07 32.41 209.85 32.33 209.85 32.33V16.14H116.57V87.33Z" fill="#0055A1"/>
<path fill-rule="evenodd" clip-rule="evenodd" d="M132.59 177.8L132.77 106.44H116.57V216C147.51 189.28 173.19 157.37 189.21 121.17H173.09C163.71 142.78 149.66 161.22 132.59 177.8Z" fill="#0055A1"/>
<path fill-rule="evenodd" clip-rule="evenodd" d="M113.501 225.21C48.5805 178.13 6.34054 104 8.22054 8.06H217.001C219.171 103.59 177.361 178.13 113.471 225.21H113.501ZM113.501 0H0.160538V0.26C0.160538 0.26 -0.209462 22.68 0.160538 30.15C4.61054 121.17 48.0005 189.84 113.501 234.72C177.601 189.91 220.001 121.17 225.341 30.15C226.141 16.65 225.341 0.26 225.341 0.26V0H113.501Z" fill="#0055A1"/>
<path fill-rule="evenodd" clip-rule="evenodd" d="M32.1103 32.3H108.49V16.14H16.0003C15.6603 105.72 53.3603 166.48 108.51 214.14V193.89C64.8603 154.18 35.5203 106.85 32.1103 32.3Z" fill="#0055A1"/>
<path fill-rule="evenodd" clip-rule="evenodd" d="M60.05 56.56H114.7V40.39H44C50 102.31 71 142.27 95.6 168.32C101.479 174.588 107.867 180.358 114.7 185.57V165.69C108.32 159.42 101.7 151.15 95.6 143.3C77.36 119.73 64.31 93.7 60.05 56.56Z" fill="#0055A1"/>
<path fill-rule="evenodd" clip-rule="evenodd" d="M186.98 40.39L134.34 40.4V56.56H185.29L186.98 40.39Z" fill="#0055A1"/>
<path fill-rule="evenodd" clip-rule="evenodd" d="M76.5098 88.81C77.7898 94.81 78.6598 100.08 80.4498 104.95C85.3098 104.95 90.8298 105.04 95.5998 105.04H152.78C149.2 116.59 142.29 128.1 134.34 137.58V161.67C147.8 147.55 169.34 116.83 173.19 88.81H76.5098Z" fill="#0055A1"/>
</g>
<defs>
<clipPath id="clip0_2_157">
<rect width="225.69" height="234.72" fill="white"/>
</clipPath>
</defs>
</svg>
