<svg width="180" height="334" viewBox="0 0 180 334" fill="none" xmlns="http://www.w3.org/2000/svg">
<g clip-path="url(#clip0_2_155)">
<path fill-rule="evenodd" clip-rule="evenodd" d="M21.1502 228.24C20.8661 226.566 20.1098 225.008 18.9702 223.75C18.4999 223.21 17.9211 222.775 17.2716 222.474C16.622 222.172 15.9162 222.011 15.2002 222C13.7495 221.996 12.34 222.483 11.2002 223.38C9.75084 224.532 8.54423 225.959 7.6502 227.58C6.59528 229.375 5.75613 231.288 5.1502 233.28C4.59133 235.301 4.25598 237.376 4.1502 239.47C4.17042 240.7 4.42497 241.915 4.9002 243.05C5.30945 243.97 5.97732 244.751 6.82247 245.297C7.66762 245.844 8.65356 246.134 9.6602 246.13C11.4437 246.094 13.1463 245.379 14.4202 244.13C15.066 243.525 15.5778 242.792 15.9223 241.977C16.2668 241.163 16.4364 240.284 16.4202 239.4C16.5202 238.23 15.5602 237.65 13.5602 237.65L13.8802 236.47H23.8802L23.5902 237.65C21.4035 237.65 20.0069 238.963 19.4002 241.59L18.0102 246.59C17.5697 246.528 17.125 246.501 16.6802 246.51C15.4997 246.559 14.3271 246.726 13.1802 247.01C12.1424 247.265 11.0906 247.458 10.0302 247.59C6.9702 247.68 4.6402 246.77 3.0302 244.85C1.35576 242.772 0.470217 240.168 0.530203 237.5C0.630203 236.59 0.670203 235.97 0.670203 235.64C0.919914 233.025 1.76852 230.504 3.1502 228.27C4.54838 226.041 6.40228 224.132 8.5902 222.67C10.4672 221.338 12.6991 220.596 15.0002 220.54C15.542 220.541 16.0832 220.578 16.6202 220.65C17.14 220.719 17.6522 220.836 18.1502 221L19.5302 221.41C19.9957 221.627 20.4913 221.772 21.0002 221.84C21.3149 221.838 21.6248 221.762 21.9046 221.618C22.1843 221.473 22.4261 221.265 22.6102 221.01L22.7802 228.28L21.1502 228.24ZM23.3902 246L23.0302 247.18H33.0302L33.3902 246C32.6141 246.055 31.836 245.925 31.1202 245.62C30.8876 245.474 30.697 245.27 30.5672 245.028C30.4375 244.786 30.373 244.515 30.3802 244.24C30.4302 243.96 30.4702 243.73 30.4902 243.56C30.5102 243.39 30.5402 243.21 30.5602 242.99L32.8902 234.58H35.6102L38.9702 247.18H45.2702V246C44.3877 246.059 43.5129 245.804 42.8002 245.28C42.1073 244.595 41.622 243.729 41.4002 242.78C40.7335 240.44 40.2169 238.577 39.8502 237.19C39.4802 235.81 39.2302 234.94 39.1102 234.58C41.2632 234.349 43.289 233.447 44.9002 232C45.6405 231.382 46.2474 230.621 46.684 229.761C47.1207 228.901 47.3779 227.962 47.4402 227C47.5686 226.138 47.4552 225.257 47.1127 224.455C46.7702 223.654 46.212 222.963 45.5002 222.46C43.7776 221.389 41.765 220.879 39.7402 221H29.3302L29.0402 222.18C29.8064 222.127 30.5743 222.257 31.2802 222.56C31.5136 222.717 31.6989 222.936 31.8154 223.192C31.9319 223.448 31.9751 223.731 31.9402 224.01C31.9273 224.539 31.8569 225.066 31.7302 225.58L27.3202 242.08C27.1083 243.219 26.6169 244.288 25.8902 245.19C25.55 245.488 25.1535 245.715 24.7241 245.858C24.2948 246 23.8412 246.055 23.3902 246.02V246ZM33.2702 232.86L35.1302 225.86C35.3374 225.068 35.6118 224.295 35.9502 223.55C36.1935 223.106 36.5767 222.754 37.0402 222.55C37.7569 222.289 38.5184 222.173 39.2802 222.21C40.4282 222.132 41.5635 222.489 42.4602 223.21C42.8869 223.561 43.2257 224.007 43.4496 224.512C43.6736 225.018 43.7765 225.568 43.7502 226.12C43.7381 227.039 43.569 227.948 43.2502 228.81C42.9521 229.685 42.4754 230.489 41.8502 231.17C40.6769 232.343 38.8635 232.927 36.4102 232.92L33.2702 232.86ZM44.3902 246C45.267 246.035 46.1321 245.79 46.8602 245.3C47.6495 244.666 48.3083 243.885 48.8002 243L61.3602 221.74L65.0102 220.56L66.4702 243.14C66.4535 243.94 66.6576 244.729 67.0602 245.42C67.3335 245.653 67.6528 245.826 67.9974 245.928C68.342 246.03 68.7041 246.057 69.0602 246.01H69.7802L69.4202 247.19H59.5302L59.8902 246.01C60.7368 246.081 61.5884 245.958 62.3802 245.65C62.7702 245.41 62.9702 244.85 62.9702 243.97V243.61L62.6802 237.88H53.8802L51.2302 242.57C50.781 243.254 50.478 244.023 50.3402 244.83C50.4102 245.66 51.3402 246.05 52.9802 246.01L52.6302 247.19H44.0402L44.3902 246.01V246ZM62.5002 236.19L61.8602 224.06L54.8602 236.19H62.5002ZM94.1502 228.09C93.9764 227 93.5999 225.952 93.0402 225C92.5736 224.196 91.9266 223.511 91.1502 223C90.4192 222.53 89.5924 222.229 88.7302 222.12C87.3731 221.967 86.0021 222.243 84.8102 222.91C83.3513 223.744 82.1081 224.909 81.1802 226.31C80.2735 227.683 79.5 229.14 78.8702 230.66C78.0803 232.545 77.5911 234.543 77.4202 236.58C77.0892 238.712 77.4873 240.893 78.5502 242.77C79.0115 243.493 79.6348 244.099 80.3706 244.54C81.1065 244.981 81.9349 245.244 82.7902 245.31C84.4775 245.466 86.1704 245.077 87.6202 244.2C89.36 243.228 90.844 241.857 91.9502 240.2L92.9502 240.88C91.6439 242.986 89.8457 244.743 87.7102 246C85.8702 247.096 83.7501 247.631 81.6102 247.54C80.0562 247.478 78.5586 246.941 77.3202 246C75.9962 244.966 74.991 243.58 74.4202 242C73.7269 240.101 73.4572 238.074 73.6302 236.06C73.7776 234.046 74.2857 232.075 75.1302 230.24C75.9687 228.412 77.0853 226.726 78.4402 225.24C79.7499 223.81 81.3172 222.64 83.0602 221.79C84.6885 220.982 86.4825 220.564 88.3002 220.57C89.4783 220.623 90.6445 220.828 91.7702 221.18C92.4751 221.412 93.193 221.602 93.9202 221.75C94.2503 221.729 94.5702 221.627 94.8512 221.453C95.1321 221.278 95.3655 221.037 95.5302 220.75L95.6702 228.15L94.1502 228.09ZM97.7702 241.94C97.6031 242.692 97.3619 243.426 97.0502 244.13C96.7888 244.671 96.3885 245.134 95.8902 245.47C95.2456 245.846 94.5056 246.027 93.7602 245.99L93.4002 247.17H103.56L103.81 245.99C101.93 245.99 100.95 245.4 100.88 244.23C100.984 243.356 101.175 242.496 101.45 241.66L105.5 226.2C105.757 225.097 106.218 224.053 106.86 223.12C107.193 222.761 107.605 222.483 108.063 222.31C108.521 222.136 109.013 222.071 109.5 222.12L109.83 220.94H99.7202L99.4302 222.12C100.212 222.06 100.995 222.208 101.7 222.55C101.931 222.714 102.115 222.937 102.233 223.195C102.351 223.453 102.398 223.738 102.37 224.02C102.322 224.847 102.164 225.664 101.9 226.45L97.7902 241.91L97.7702 241.94ZM114.23 233.18C113.563 235.363 113.167 237.62 113.05 239.9C112.973 241.462 113.39 243.008 114.24 244.32C114.604 244.823 115.074 245.239 115.616 245.54C116.159 245.84 116.761 246.018 117.38 246.06C118.631 246.197 119.896 246.005 121.05 245.504C122.204 245.002 123.207 244.208 123.96 243.2C125.753 240.926 127.109 238.339 127.96 235.57C128.731 233.176 129.156 230.684 129.22 228.17C129.26 226.631 128.819 225.118 127.96 223.84C127.551 223.239 126.994 222.755 126.342 222.434C125.69 222.113 124.966 221.967 124.24 222.01C123.123 222.065 122.032 222.362 121.041 222.88C120.05 223.398 119.183 224.125 118.5 225.01C116.531 227.41 115.065 230.182 114.19 233.16L114.23 233.18ZM110.4 231.71C111.132 229.618 112.232 227.674 113.65 225.97C114.986 224.329 116.635 222.969 118.5 221.97C120.203 221.053 122.097 220.55 124.03 220.5C125.756 220.438 127.453 220.955 128.85 221.97C130.216 223.002 131.276 224.384 131.92 225.97C132.63 227.611 132.991 229.382 132.98 231.17C132.978 232.6 132.765 234.022 132.35 235.39C131.927 236.807 131.333 238.167 130.58 239.44C129.869 240.658 129.031 241.798 128.08 242.84C126.669 244.373 124.97 245.613 123.08 246.49C121.556 247.197 119.889 247.539 118.21 247.49C117.051 247.458 115.907 247.221 114.83 246.79C113.825 246.38 112.914 245.771 112.15 245C111.307 244.129 110.63 243.113 110.15 242C109.664 240.531 109.375 239.005 109.29 237.46C109.357 235.519 109.722 233.6 110.37 231.77L110.4 231.71ZM135.05 239.47H136.59C136.96 241.176 137.847 242.726 139.13 243.91C140.363 245.069 141.954 245.774 143.64 245.91C145.033 245.897 146.369 245.358 147.38 244.4C147.877 243.942 148.27 243.383 148.532 242.76C148.795 242.137 148.92 241.465 148.9 240.79C148.95 239.788 148.646 238.8 148.04 238C147.428 237.249 146.678 236.621 145.83 236.15C144.92 235.64 143.89 235.05 142.75 234.38C141.496 233.56 140.379 232.548 139.44 231.38C138.693 230.26 138.403 228.897 138.63 227.57C138.7 226.658 138.937 225.766 139.33 224.94C139.74 224.091 140.299 223.322 140.98 222.67C141.659 221.995 142.46 221.456 143.34 221.08C144.229 220.705 145.185 220.514 146.15 220.52C147.18 220.575 148.194 220.802 149.15 221.19C149.996 221.524 150.874 221.768 151.77 221.92C152.108 221.892 152.435 221.787 152.726 221.614C153.017 221.441 153.265 221.203 153.45 220.92L153.98 228.26H152.59C152.21 226.647 151.449 225.148 150.37 223.89C149.896 223.303 149.296 222.83 148.613 222.508C147.931 222.186 147.185 222.023 146.43 222.03C145.252 222.007 144.107 222.416 143.21 223.18C142.778 223.534 142.424 223.976 142.173 224.475C141.921 224.975 141.777 225.521 141.75 226.08C141.699 226.609 141.771 227.142 141.96 227.638C142.149 228.134 142.45 228.58 142.84 228.94C144.096 230.019 145.468 230.954 146.93 231.73C148.419 232.461 149.732 233.505 150.78 234.79C151.714 236.068 152.176 237.63 152.09 239.21C152.109 240.314 151.905 241.41 151.49 242.433C151.076 243.457 150.458 244.385 149.676 245.164C148.893 245.943 147.962 246.556 146.936 246.966C145.911 247.376 144.814 247.574 143.71 247.55C142.354 247.498 141.024 247.157 139.81 246.55C138.991 246.049 138.05 245.783 137.09 245.78C136.684 245.883 136.312 246.095 136.017 246.393C135.721 246.69 135.511 247.063 135.41 247.47H134.84L135.05 239.41V239.47ZM151.36 246L151 247.18H159.59L159.94 246C158.25 246 157.37 245.65 157.3 244.82C157.438 244.013 157.741 243.244 158.19 242.56L160.84 237.87H169.64L169.93 243.6V244C169.93 244.88 169.73 245.44 169.34 245.68C168.548 245.988 167.697 246.111 166.85 246.04L166.49 247.22H176.37L176.73 246.04H176.01C175.654 246.09 175.291 246.063 174.946 245.962C174.601 245.86 174.282 245.685 174.01 245.45C173.599 244.762 173.394 243.971 173.42 243.17L171.95 220.59L168.3 221.77L155.76 243C155.269 243.885 154.614 244.669 153.83 245.31C153.101 245.797 152.237 246.042 151.36 246.01V246ZM169.46 236.19H161.84L168.84 224.06L169.46 236.19Z" fill="#0055A1"/>
<path fill-rule="evenodd" clip-rule="evenodd" d="M26.4995 271C26.319 269.901 25.9394 268.843 25.3795 267.88C24.9049 267.079 24.2554 266.395 23.4795 265.88C22.7452 265.419 21.9195 265.122 21.0595 265.01C19.7032 264.85 18.3311 265.123 17.1395 265.79C15.6858 266.631 14.444 267.794 13.5095 269.19C12.6026 270.561 11.8323 272.018 11.2095 273.54C10.4107 275.422 9.92108 277.422 9.75947 279.46C9.41983 281.591 9.81478 283.773 10.8795 285.65C11.341 286.382 11.9676 286.996 12.7092 287.442C13.4507 287.889 14.2865 288.155 15.1495 288.22C16.8368 288.376 18.5297 287.987 19.9795 287.11C21.7186 286.137 23.2024 284.767 24.3095 283.11L25.3095 283.79C23.9945 285.903 22.1816 287.661 20.0295 288.91C18.1894 290.006 16.0694 290.542 13.9295 290.45C12.3737 290.398 10.8735 289.859 9.63947 288.91C8.31348 287.878 7.3078 286.491 6.73947 284.91C6.05263 283.02 5.78644 281.003 5.95947 279C6.11034 276.988 6.62182 275.02 7.46947 273.19C8.2959 271.356 9.41367 269.667 10.7795 268.19C12.0804 266.752 13.6454 265.578 15.3895 264.73C17.0169 263.921 18.812 263.506 20.6295 263.52C21.8086 263.564 22.9762 263.769 24.0995 264.13C24.8044 264.362 25.5223 264.552 26.2495 264.7C26.5783 264.674 26.8961 264.57 27.1763 264.396C27.4565 264.222 27.6908 263.983 27.8595 263.7L27.9995 271.11L26.4995 271ZM33.6595 276.08C32.9912 278.266 32.5949 280.527 32.4795 282.81C32.4006 284.373 32.8209 285.921 33.6795 287.23C34.0391 287.737 34.5061 288.158 35.047 288.464C35.588 288.77 36.1898 288.953 36.8095 289C38.0606 289.141 39.327 288.951 40.4817 288.449C41.6364 287.947 42.6391 287.151 43.3895 286.14C45.1765 283.865 46.5321 281.283 47.3895 278.52C48.1526 276.121 48.5734 273.627 48.6395 271.11C48.6759 269.573 48.2396 268.061 47.3895 266.78C46.978 266.197 46.4256 265.728 45.7838 265.417C45.142 265.106 44.4318 264.962 43.7195 265C42.6017 265.057 41.5093 265.355 40.517 265.872C39.5246 266.39 38.6557 267.116 37.9695 268C35.9986 270.395 34.5326 273.164 33.6595 276.14V276.08ZM29.8295 274.61C30.5628 272.517 31.6671 270.572 33.0895 268.87C34.4238 267.227 36.0727 265.867 37.9395 264.87C39.6399 263.949 41.5361 263.449 43.4695 263.41C45.207 263.378 46.9036 263.938 48.2795 265C49.6457 266.034 50.7093 267.415 51.3595 269C52.0455 270.65 52.3858 272.423 52.3595 274.21C52.3553 275.64 52.143 277.061 51.7295 278.43C51.3118 279.833 50.717 281.177 49.9595 282.43C49.2479 283.648 48.41 284.788 47.4595 285.83C46.0482 287.363 44.3493 288.603 42.4595 289.48C40.9408 290.191 39.2756 290.534 37.5995 290.48C36.4402 290.449 35.2957 290.212 34.2195 289.78C33.1893 289.354 32.262 288.713 31.4995 287.9C30.6537 287.032 29.9757 286.015 29.4995 284.9C29.0035 283.43 28.7141 281.899 28.6395 280.35C28.7043 278.41 29.0651 276.491 29.7095 274.66L29.8295 274.61ZM74.1495 263.92H82.3095L81.9895 265.1C81.4863 265.039 80.9759 265.098 80.4998 265.272C80.0236 265.446 79.5953 265.729 79.2495 266.1C78.6371 267.009 78.2059 268.028 77.9795 269.1L75.5395 278.26C75.0195 280.36 74.5495 282.05 74.1295 283.33C73.7588 284.503 73.2234 285.617 72.5395 286.64C71.6785 287.907 70.5034 288.929 69.1291 289.605C67.7549 290.282 66.2286 290.59 64.6995 290.5C62.6191 290.589 60.5735 289.945 58.9195 288.68C58.1663 288.037 57.5748 287.226 57.1926 286.312C56.8105 285.399 56.6484 284.408 56.7195 283.42C56.7944 282.106 56.9987 280.803 57.3295 279.53C57.7295 277.73 58.1595 276.04 58.5995 274.45C59.0395 272.86 59.5095 271.18 60.0095 269.39C60.2771 268.553 60.4449 267.687 60.5095 266.81C60.5095 265.64 59.5795 265.06 57.7195 265.06L58.0795 263.88H67.9895L67.6395 265.06C67.1273 265 66.6081 265.059 66.1225 265.232C65.6368 265.406 65.1977 265.689 64.8395 266.06C64.2319 266.962 63.8291 267.986 63.6595 269.06C63.5395 269.633 63.1695 270.993 62.5495 273.14C61.9295 275.287 61.3761 277.343 60.8895 279.31C60.493 280.706 60.2482 282.141 60.1595 283.59C60.1221 284.284 60.2329 284.979 60.4846 285.627C60.7364 286.276 61.1232 286.863 61.6195 287.35C62.6858 288.285 64.0724 288.773 65.4895 288.71C66.6072 288.727 67.71 288.452 68.6887 287.911C69.6674 287.371 70.488 286.585 71.0695 285.63C71.6587 284.715 72.1165 283.722 72.4295 282.68C72.7195 281.68 73.1195 280.2 73.6495 278.22L75.9695 269.35C76.0495 269.09 76.1495 268.69 76.2995 268.17C76.425 267.737 76.4956 267.29 76.5095 266.84C76.5095 265.55 75.6295 264.95 73.8595 265.02L74.1495 263.84V263.92ZM89.8895 263.92H84.1495L83.8595 265.1C84.6496 265.074 85.4365 265.214 86.1695 265.51C86.3745 265.648 86.538 265.839 86.642 266.063C86.746 266.286 86.7867 266.535 86.7595 266.78C86.6839 267.678 86.5164 268.566 86.2595 269.43L82.2895 284.1C82.0076 285.34 81.5245 286.526 80.8595 287.61C80.5601 288.045 80.1532 288.396 79.6783 288.627C79.2034 288.858 78.6767 288.963 78.1495 288.93L77.7895 290.11H85.9095L86.2695 288.93C84.5295 288.93 83.6195 288.3 83.5495 287.03C83.6642 286.038 83.865 285.057 84.1495 284.1L88.1495 268.86L98.0695 290.18H98.3495L103.859 269.18C104.127 268.081 104.588 267.038 105.219 266.1C105.585 265.73 106.03 265.448 106.52 265.275C107.01 265.102 107.533 265.042 108.049 265.1L108.339 263.92H99.9295L99.6495 265.1C100.412 265.039 101.178 265.166 101.879 265.47C102.094 265.61 102.267 265.806 102.378 266.037C102.489 266.268 102.534 266.525 102.509 266.78C102.434 267.678 102.266 268.566 102.009 269.43L98.4695 282.63L89.9095 263.92H89.8895ZM111.009 263.92H130.509L131.119 270.82L129.869 271.11C129.531 269.511 128.767 268.032 127.659 266.83C127.134 266.265 126.493 265.818 125.781 265.519C125.069 265.221 124.301 265.078 123.529 265.1C122.669 265.1 122.159 265.59 121.989 266.57L117.229 284.57C116.967 285.436 116.777 286.323 116.659 287.22C116.668 287.475 116.739 287.725 116.866 287.946C116.993 288.167 117.173 288.354 117.389 288.49C118.076 288.812 118.833 288.953 119.589 288.9L119.239 290.08H108.919L109.199 288.9C109.724 288.98 110.26 288.955 110.775 288.827C111.29 288.698 111.774 288.468 112.199 288.15C112.965 287.194 113.484 286.064 113.709 284.86L118.469 266.68C118.537 266.373 118.583 266.063 118.609 265.75C118.609 265.29 118.389 265.07 117.969 265.07C116.129 265.1 114.342 265.693 112.849 266.77C111.188 267.887 109.693 269.234 108.409 270.77L107.269 270.13L110.989 263.87L111.009 263.92ZM127.359 288.92L126.999 290.1H136.999L137.359 288.92C136.584 288.975 135.807 288.848 135.089 288.55C134.859 288.402 134.67 288.198 134.54 287.956C134.411 287.715 134.345 287.444 134.349 287.17C134.349 286.88 134.439 286.65 134.459 286.49C134.479 286.33 134.509 286.13 134.529 285.91L136.859 277.51H139.579L142.939 290.1H149.239V288.92C148.359 288.977 147.486 288.726 146.769 288.21C146.077 287.523 145.595 286.652 145.379 285.7C144.713 283.36 144.193 281.5 143.819 280.12C143.449 278.73 143.209 277.86 143.089 277.51C145.233 277.262 147.246 276.353 148.849 274.91C149.595 274.297 150.205 273.536 150.642 272.675C151.079 271.815 151.334 270.874 151.389 269.91C151.516 269.049 151.402 268.17 151.062 267.369C150.721 266.568 150.167 265.877 149.459 265.37C147.735 264.291 145.721 263.767 143.689 263.87H133.319L133.029 265.05C133.795 264.995 134.562 265.122 135.269 265.42C135.502 265.578 135.687 265.797 135.803 266.052C135.92 266.308 135.963 266.591 135.929 266.87C135.917 267.403 135.846 267.932 135.719 268.45L131.319 285C131.097 286.139 130.607 287.208 129.889 288.12C129.546 288.416 129.148 288.641 128.717 288.782C128.286 288.923 127.831 288.977 127.379 288.94L127.359 288.92ZM137.239 275.79L139.099 268.79C139.305 268.001 139.579 267.231 139.919 266.49C140.157 266.041 140.542 265.688 141.009 265.49C141.725 265.224 142.487 265.108 143.249 265.15C144.398 265.07 145.534 265.427 146.429 266.15C146.856 266.504 147.194 266.952 147.418 267.458C147.642 267.965 147.745 268.517 147.719 269.07C147.712 269.986 147.543 270.893 147.219 271.75C146.914 272.582 146.448 273.346 145.849 274C144.679 275.17 142.849 275.76 140.409 275.76L137.239 275.79ZM164.429 277.51L171.549 268.92C172.213 268.193 172.672 267.303 172.879 266.34C172.879 265.51 172.069 265.09 170.449 265.09L170.729 263.91H179.609L179.249 265.09C178.241 265.04 177.247 265.345 176.439 265.95C175.35 266.831 174.37 267.838 173.519 268.95L165.149 279.27L163.539 285.27C163.399 285.94 163.289 286.59 163.219 287.27C163.219 287.541 163.29 287.808 163.426 288.043C163.561 288.278 163.755 288.474 163.989 288.61C164.807 288.913 165.681 289.03 166.549 288.95L166.229 290.13H155.289L155.649 288.95C156.752 289.08 157.863 288.779 158.749 288.11C159.481 287.118 159.977 285.972 160.199 284.76L161.519 279.57L158.589 268.52C158.391 267.505 157.941 266.555 157.279 265.76C156.488 265.224 155.527 264.996 154.579 265.12L154.859 263.94H165.419L165.059 265.12C162.939 264.88 161.849 265.49 161.809 266.94C161.901 267.646 162.054 268.342 162.269 269.02L164.429 277.51Z" fill="#0055A1"/>
<path fill-rule="evenodd" clip-rule="evenodd" d="M64.291 314C64.1091 312.895 63.7224 311.833 63.151 310.87C62.6793 310.067 62.0292 309.382 61.251 308.87C60.5251 308.406 59.7054 308.109 58.851 308C57.4969 307.842 56.1276 308.119 54.941 308.79C53.4771 309.621 52.23 310.786 51.301 312.19C50.3919 313.557 49.6214 315.01 49.001 316.53C48.203 318.416 47.7134 320.418 47.551 322.46C47.2138 324.591 47.6086 326.773 48.671 328.65C49.1323 329.373 49.7555 329.979 50.4914 330.42C51.2273 330.861 52.0557 331.124 52.911 331.19C54.5983 331.346 56.2912 330.957 57.741 330.08C59.4808 329.108 60.9648 327.737 62.071 326.08L63.071 326.76C61.7531 328.868 59.9407 330.622 57.791 331.87C55.9509 332.966 53.8309 333.502 51.691 333.41C50.1352 333.357 48.635 332.819 47.401 331.87C46.0758 330.837 45.0703 329.451 44.501 327.87C43.8077 325.971 43.538 323.944 43.711 321.93C43.8607 319.915 44.3722 317.944 45.221 316.11C46.0527 314.279 47.17 312.591 48.531 311.11C49.8325 309.668 51.4015 308.493 53.151 307.65C54.7777 306.838 56.5728 306.42 58.391 306.43C59.5696 306.478 60.7365 306.684 61.861 307.04C62.5659 307.272 63.2838 307.462 64.011 307.61C64.3398 307.584 64.6577 307.48 64.9378 307.306C65.218 307.132 65.4523 306.893 65.621 306.61L65.761 314.02L64.291 314ZM63.541 333.08H82.651L85.511 326.63L84.151 326.08C83.3038 327.334 82.2951 328.47 81.151 329.46C80.1535 330.301 78.9974 330.934 77.751 331.32C76.353 331.733 74.8978 331.918 73.441 331.87C72.7566 331.921 72.0701 331.804 71.441 331.53C71.2577 331.43 71.1018 331.286 70.9868 331.112C70.8717 330.938 70.8011 330.738 70.781 330.53C70.901 329.69 70.981 329.16 71.031 328.92L75.511 312.14C75.7496 311.07 76.1836 310.053 76.791 309.14C77.1352 308.773 77.5603 308.491 78.0325 308.318C78.5048 308.144 79.0111 308.083 79.511 308.14L79.801 306.96H69.801L69.551 308C70.3287 307.941 71.1095 308.064 71.831 308.36C72.0456 308.502 72.2171 308.7 72.3264 308.933C72.4358 309.166 72.4789 309.424 72.451 309.68C72.3754 310.578 72.2079 311.466 71.951 312.33L67.951 327.79C67.7298 328.542 67.4626 329.28 67.151 330C66.9038 330.552 66.5138 331.029 66.021 331.38C65.3921 331.758 64.6632 331.936 63.931 331.89L63.571 333.08H63.541ZM106.231 306.88H114.391L114.071 308.06C113.568 308.002 113.058 308.062 112.583 308.235C112.107 308.409 111.678 308.691 111.331 309.06C110.722 309.971 110.291 310.989 110.061 312.06L107.631 321.22C107.101 323.32 106.631 325 106.221 326.28C105.853 327.456 105.314 328.571 104.621 329.59C103.049 331.616 100.755 332.956 98.2184 333.328C95.6816 333.701 93.0989 333.078 91.011 331.59C90.2566 330.948 89.6642 330.137 89.2819 329.223C88.8996 328.309 88.7383 327.318 88.811 326.33C88.8864 325.02 89.0873 323.721 89.411 322.45C89.821 320.65 90.241 318.95 90.681 317.37C91.121 315.79 91.601 314.09 92.101 312.3C92.3644 311.462 92.5322 310.596 92.601 309.72C92.601 308.56 91.671 307.97 89.811 307.97L90.171 306.79H100.081L99.721 308C99.2103 307.939 98.6924 307.998 98.2082 308.171C97.724 308.345 97.2868 308.629 96.931 309C96.315 309.897 95.9115 310.923 95.751 312C95.631 312.57 95.261 313.93 94.641 316.07C94.021 318.21 93.461 320.28 92.971 322.25C92.5797 323.644 92.335 325.075 92.241 326.52C92.2023 327.215 92.3135 327.911 92.5671 328.56C92.8207 329.209 93.2108 329.795 93.711 330.28C94.7721 331.218 96.1565 331.705 97.571 331.64C98.6904 331.659 99.7953 331.384 100.776 330.844C101.756 330.304 102.579 329.516 103.161 328.56C103.752 327.646 104.21 326.653 104.521 325.61C104.801 324.61 105.211 323.14 105.731 321.16L108.061 312.28C108.131 312.02 108.241 311.63 108.381 311.1C108.509 310.671 108.583 310.227 108.601 309.78C108.601 308.49 107.711 307.88 105.951 307.95L106.231 306.77V306.88ZM119.971 319.73L117.431 329.1C117.431 329.29 117.431 329.47 117.361 329.62C117.291 329.77 117.301 329.97 117.261 330.21C117.233 330.484 117.288 330.759 117.418 331.002C117.548 331.244 117.748 331.442 117.991 331.57C118.671 331.824 119.396 331.933 120.121 331.89C121.416 331.906 122.707 331.751 123.961 331.43C125.1 331.115 126.135 330.504 126.961 329.66C127.908 328.641 128.567 327.388 128.871 326.03C129.008 325.372 129.082 324.702 129.091 324.03C129.091 321.137 127.144 319.693 123.251 319.7L119.971 319.73ZM120.371 318.26H123.451C124.643 318.296 125.834 318.168 126.991 317.88C127.951 317.586 128.84 317.096 129.601 316.44C130.185 315.942 130.635 315.306 130.911 314.59C131.202 313.844 131.351 313.051 131.351 312.25C131.382 311.374 131.175 310.507 130.751 309.74C129.931 308.62 128.421 308.06 126.201 308.06C125.314 308.001 124.428 308.188 123.641 308.6C122.961 309.148 122.5 309.921 122.341 310.78L120.341 318.26H120.371ZM126.881 319.08V319C128.728 319.01 130.542 318.508 132.121 317.55C132.939 317.166 133.645 316.578 134.17 315.842C134.696 315.107 135.023 314.249 135.121 313.35C135.257 312.189 135.018 311.016 134.441 310C133.721 308.926 132.667 308.121 131.441 307.71C129.622 307.085 127.703 306.8 125.781 306.87H116.251L115.901 308.05C116.675 307.992 117.453 308.115 118.171 308.41C118.387 308.55 118.56 308.748 118.67 308.981C118.779 309.215 118.821 309.474 118.791 309.73C118.788 310.387 118.693 311.039 118.511 311.67L113.891 329C113.391 331 112.221 331.94 110.381 331.86L110.031 333.05H121.591C124.297 333.123 126.975 332.499 129.371 331.24C130.863 330.359 131.979 328.96 132.506 327.31C133.033 325.66 132.936 323.873 132.231 322.29C131.767 321.352 131.032 320.576 130.121 320.06C129.12 319.511 128.017 319.171 126.881 319.06V319.08Z" fill="#0055A1"/>
<path fill-rule="evenodd" clip-rule="evenodd" d="M92.2109 69H105.001V25.51H154.211C154.211 25.57 165.881 25.51 165.881 25.51V12.75H92.2109V69Z" fill="#0055A1"/>
<path fill-rule="evenodd" clip-rule="evenodd" d="M104.871 140.42L105.001 84.06H92.2109V170.59C116.651 149.48 136.931 124.28 149.581 95.7H136.851C129.451 112.76 118.351 127.32 104.871 140.42Z" fill="#0055A1"/>
<path fill-rule="evenodd" clip-rule="evenodd" d="M89.7912 177.86C38.5112 140.68 5.15123 82.11 6.64123 6.37H171.551C173.271 81.81 140.251 140.68 89.7912 177.86ZM89.7912 0H0.281233V0.2C0.281233 0.2 -0.00876735 17.91 0.281233 23.81C3.79123 95.7 38.0712 149.93 89.7912 185.37C140.411 150 173.861 95.7 178.151 23.81C178.781 13.15 178.151 0.2 178.151 0.2V0H89.7912Z" fill="#0055A1"/>
<path fill-rule="evenodd" clip-rule="evenodd" d="M25.5111 25.51H85.8311V12.75H12.7811C12.5111 83.5 42.2811 131.48 85.8411 169.11V153.11C51.3711 121.77 28.2111 84.39 25.5111 25.51Z" fill="#0055A1"/>
<path fill-rule="evenodd" clip-rule="evenodd" d="M47.5811 44.66H90.7411V31.9H34.8711C39.6411 80.8 56.2011 112.36 75.6611 132.9C80.2986 137.853 85.3429 142.409 90.7411 146.52V130.82C85.7411 125.87 80.5011 119.35 75.6611 113.14C61.2511 94.56 50.9411 74 47.5811 44.66Z" fill="#0055A1"/>
<path fill-rule="evenodd" clip-rule="evenodd" d="M147.82 31.9H106.25V44.66H146.49L147.82 31.9Z" fill="#0055A1"/>
<path fill-rule="evenodd" clip-rule="evenodd" d="M60.5703 70.14C61.5703 74.86 62.2703 79.04 63.6903 82.88C67.5303 82.88 71.8903 82.96 75.6903 82.96H120.84C118.01 92.08 112.56 101.16 106.28 108.65V127.65C116.9 116.49 133.9 92.23 136.96 70.11H60.5703V70.14Z" fill="#0055A1"/>
<path d="M178.39 203.96H0.150391V207.52H178.39V203.96Z" fill="#0055A1"/>
</g>
<defs>
<clipPath id="clip0_2_155">
<rect width="179.48" height="333.49" fill="white" transform="translate(0.150391)"/>
</clipPath>
</defs>
</svg>
