<svg width="448" height="153" viewBox="0 0 448 153" fill="none" xmlns="http://www.w3.org/2000/svg">
<g clip-path="url(#clip0_2_154)">
<path fill-rule="evenodd" clip-rule="evenodd" d="M225.32 39.37H232.63V14.56H260.71H267.37V7.28003H225.32V39.37Z" fill="#0055A1"/>
<path fill-rule="evenodd" clip-rule="evenodd" d="M232.55 80.15L232.63 48H225.32V97.37C239.32 85.37 250.85 70.94 258.07 54.62H250.8C246.58 64.36 240.24 72.68 232.55 80.15Z" fill="#0055A1"/>
<path fill-rule="evenodd" clip-rule="evenodd" d="M223.941 101.52C194.671 80.3 175.631 46.87 176.501 3.63H270.631C271.631 46.7 252.761 80.3 223.961 101.52H223.941ZM223.941 0H172.851V0.11C172.851 0.11 172.681 10.22 172.851 13.59C174.851 54.59 194.421 85.59 223.941 105.81C252.841 85.61 271.941 54.63 274.361 13.59C274.721 7.5 274.361 0.11 274.361 0.11V0H223.941Z" fill="#0055A1"/>
<path fill-rule="evenodd" clip-rule="evenodd" d="M187.251 14.56H221.681V7.28003H179.981C179.831 47.66 196.821 75.05 221.691 96.53V87.41C202.011 69.5 188.791 48.17 187.251 14.56Z" fill="#0055A1"/>
<path fill-rule="evenodd" clip-rule="evenodd" d="M199.852 25.5H224.502V18.21H192.592C195.322 46.12 204.772 64.14 215.872 75.88C218.528 78.7083 221.414 81.3106 224.502 83.66V74.66C221.425 71.4789 218.549 68.1091 215.892 64.57C206.881 53.371 201.309 39.8001 199.852 25.5Z" fill="#0055A1"/>
<path fill-rule="evenodd" clip-rule="evenodd" d="M257.06 18.21H233.34L233.33 25.5H256.31L257.06 18.21Z" fill="#0055A1"/>
<path fill-rule="evenodd" clip-rule="evenodd" d="M207.262 40C207.688 42.4613 208.283 44.8903 209.042 47.27C211.232 47.27 213.722 47.27 215.872 47.27H241.642C239.856 52.6738 237.033 57.6772 233.332 62V72.88C239.402 66.51 249.102 52.67 250.852 40H207.262Z" fill="#0055A1"/>
<path fill-rule="evenodd" clip-rule="evenodd" d="M20.581 133.77C20.3116 132.156 19.5904 130.651 18.501 129.43C18.0465 128.912 17.4887 128.495 16.8636 128.206C16.2384 127.917 15.5597 127.761 14.871 127.75C13.4641 127.739 12.0956 128.209 10.991 129.08C9.56908 130.192 8.3827 131.575 7.50095 133.15C6.49079 134.88 5.69494 136.727 5.13095 138.65C4.55574 140.604 4.20021 142.617 4.07095 144.65C4.09125 145.839 4.33905 147.014 4.80095 148.11C5.19129 149.004 5.83481 149.765 6.6522 150.298C7.46959 150.831 8.4251 151.113 9.40095 151.11C11.1248 151.07 12.769 150.376 14.001 149.17C14.6217 148.585 15.1125 147.875 15.4415 147.088C15.7706 146.301 15.9305 145.453 15.911 144.6C16.001 143.47 15.081 142.9 13.141 142.9L13.451 141.76H23.101L22.831 142.9C20.7043 142.9 19.371 144.17 18.831 146.71L17.481 151.56C17.0568 151.503 16.6288 151.48 16.201 151.49C15.0543 151.535 13.9152 151.696 12.801 151.97C11.8127 152.215 10.811 152.402 9.80095 152.53C6.84095 152.617 4.57762 151.733 3.01095 149.88C1.35609 147.872 0.466751 145.342 0.500951 142.74C0.590951 141.86 0.640951 141.26 0.640951 140.94C0.927229 138.396 1.80386 135.955 3.20095 133.81C4.56114 131.646 6.36819 129.798 8.50095 128.39C10.3172 127.103 12.4756 126.386 14.701 126.33C15.2259 126.328 15.7504 126.362 16.271 126.43C16.7515 126.492 17.2264 126.592 17.691 126.73L19.021 127.13C19.4718 127.335 19.9502 127.473 20.441 127.54C20.746 127.541 21.0468 127.469 21.3182 127.33C21.5896 127.19 21.8237 126.988 22.001 126.74L22.171 133.74L20.581 133.77ZM22.761 150.94L22.411 152.08H32.101L32.451 150.94C31.6996 150.993 30.9462 150.87 30.251 150.58C30.0277 150.436 29.8452 150.237 29.7209 150.003C29.5966 149.768 29.5346 149.505 29.541 149.24C29.591 148.97 29.621 148.75 29.641 148.59C29.661 148.43 29.691 148.24 29.711 148.03L31.961 139.9H34.591L37.8509 152.08H43.9409V150.94C43.0882 150.996 42.2426 150.752 41.5509 150.25C40.8829 149.582 40.4153 148.74 40.201 147.82C39.561 145.56 39.0509 143.76 38.701 142.42C38.351 141.08 38.101 140.24 37.991 139.9C40.0629 139.661 42.0094 138.784 43.561 137.39C44.2745 136.798 44.8604 136.067 45.2833 135.242C45.7061 134.417 45.9571 133.515 46.021 132.59C46.1439 131.757 46.0344 130.906 45.7044 130.132C45.3744 129.357 44.8368 128.688 44.151 128.2C42.4856 127.15 40.5369 126.641 38.5709 126.74H28.501L28.231 127.89C28.9692 127.839 29.7091 127.962 30.391 128.25C30.6174 128.401 30.7974 128.611 30.9104 128.859C31.0235 129.106 31.0653 129.38 31.031 129.65C31.0182 130.163 30.9477 130.673 30.821 131.17L26.561 147.17C26.3521 148.267 25.8784 149.297 25.181 150.17C24.8508 150.457 24.4668 150.676 24.0513 150.813C23.6358 150.95 23.1972 151.004 22.761 150.97V150.94ZM32.311 138.24L34.111 131.45C34.3075 130.683 34.5754 129.937 34.9109 129.22C35.1332 128.774 35.5048 128.42 35.9609 128.22C36.6509 127.964 37.386 127.851 38.1209 127.89C39.2403 127.821 40.3442 128.178 41.2109 128.89C41.6248 129.221 41.9566 129.643 42.1804 130.124C42.4042 130.604 42.5139 131.13 42.5009 131.66C42.4909 132.548 42.3285 133.427 42.021 134.26C41.7258 135.102 41.2669 135.876 40.6709 136.54C39.5409 137.67 37.7809 138.24 35.4109 138.24H32.311ZM43.0709 150.94C43.9196 150.973 44.7567 150.735 45.4609 150.26C46.2312 149.641 46.8674 148.872 47.331 148L59.5009 127.47L63.0309 126.33L64.451 148.17C64.4315 148.942 64.629 149.704 65.021 150.37C65.2824 150.595 65.5888 150.763 65.9198 150.861C66.2508 150.959 66.5988 150.986 66.941 150.94H67.641L67.291 152.08H57.721L58.061 150.94C58.8805 151.009 59.7049 150.889 60.471 150.59C60.851 150.363 61.041 149.823 61.041 148.97V148.62L60.7609 143.08H52.2509L49.6909 147.62C49.2603 148.282 48.9646 149.023 48.8209 149.8C48.8909 150.6 49.741 150.98 51.381 150.94L51.041 152.08H42.7309L43.0709 150.94ZM60.591 141.45L59.971 129.72L53.221 141.45H60.591ZM91.221 133.63C91.0449 132.572 90.6754 131.555 90.131 130.63C89.6815 129.832 89.0555 129.148 88.301 128.63C87.5933 128.177 86.7941 127.887 85.961 127.78C84.649 127.626 83.3222 127.893 82.171 128.54C80.7592 129.346 79.5569 130.473 78.661 131.83C77.7776 133.153 77.0273 134.56 76.421 136.03C75.6536 137.854 75.181 139.788 75.021 141.76C74.6972 143.826 75.0814 145.94 76.111 147.76C76.5589 148.46 77.1633 149.047 77.8765 149.474C78.5897 149.901 79.3922 150.156 80.221 150.22C81.8528 150.365 83.4886 149.987 84.891 149.14C86.5676 148.204 88.0024 146.889 89.081 145.3L90.081 145.96C88.8067 148.002 87.0524 149.701 84.971 150.91C83.1908 151.969 81.1406 152.487 79.071 152.4C77.5672 152.342 76.1179 151.822 74.921 150.91C73.6394 149.908 72.6685 148.562 72.121 147.03C71.4496 145.196 71.1868 143.237 71.351 141.29C71.4946 139.341 71.9893 137.433 72.811 135.66C73.6154 133.888 74.6954 132.254 76.011 130.82C77.2801 129.437 78.8048 128.313 80.501 127.51C82.0787 126.725 83.8186 126.321 85.581 126.33C86.7189 126.377 87.8455 126.575 88.931 126.92C89.6123 127.146 90.307 127.33 91.011 127.47C91.3324 127.442 91.6421 127.336 91.9137 127.162C92.1854 126.987 92.4109 126.75 92.571 126.47L92.711 133.63H91.221ZM94.721 147.03C94.5606 147.754 94.3295 148.461 94.031 149.14C93.7764 149.666 93.3864 150.115 92.901 150.44C92.2784 150.806 91.5619 150.98 90.841 150.94L90.501 152.08H100.331L100.571 150.94C98.741 150.94 97.801 150.37 97.731 149.24C97.8317 148.394 98.016 147.56 98.281 146.75L102.191 131.8C102.451 130.73 102.898 129.715 103.511 128.8C103.837 128.458 104.238 128.197 104.682 128.036C105.126 127.874 105.601 127.818 106.071 127.87L106.381 126.72H96.591L96.311 127.87C97.0677 127.808 97.8274 127.949 98.511 128.28C98.7327 128.44 98.9085 128.655 99.0209 128.904C99.1332 129.154 99.178 129.428 99.151 129.7C99.1062 130.5 98.9549 131.29 98.701 132.05L94.701 147.05L94.721 147.03ZM110.641 138.55C110 140.663 109.618 142.845 109.501 145.05C109.426 146.563 109.832 148.062 110.661 149.33C111.01 149.81 111.459 150.209 111.977 150.499C112.495 150.789 113.069 150.963 113.661 151.01C114.872 151.142 116.097 150.957 117.214 150.471C118.331 149.985 119.302 149.216 120.031 148.24C121.772 146.042 123.097 143.544 123.941 140.87C124.678 138.548 125.085 136.135 125.151 133.7C125.184 132.213 124.762 130.751 123.941 129.51C123.542 128.933 123.001 128.468 122.371 128.16C121.74 127.852 121.041 127.711 120.341 127.75C119.258 127.807 118.201 128.097 117.241 128.601C116.281 129.105 115.442 129.811 114.781 130.67C112.874 132.989 111.456 135.669 110.611 138.55H110.641ZM106.941 137.13C107.651 135.104 108.718 133.221 110.091 131.57C111.386 129.998 112.98 128.7 114.781 127.75C116.421 126.853 118.253 126.366 120.121 126.33C121.79 126.267 123.431 126.767 124.781 127.75C126.104 128.732 127.14 130.051 127.781 131.57C128.451 133.151 128.792 134.853 128.781 136.57C128.779 137.953 128.574 139.327 128.171 140.65C127.783 142.032 127.222 143.359 126.501 144.6C125.813 145.779 125.002 146.882 124.081 147.89C122.724 149.374 121.085 150.574 119.261 151.42C117.794 152.117 116.184 152.46 114.561 152.42C113.439 152.39 112.332 152.159 111.291 151.74C110.294 151.328 109.398 150.708 108.661 149.92C107.856 149.08 107.215 148.096 106.771 147.02C106.295 145.598 106.015 144.118 105.941 142.62C105.988 140.746 106.325 138.891 106.941 137.12V137.13ZM130.791 144.64H132.271C132.635 146.287 133.493 147.784 134.731 148.93C135.92 150.056 137.459 150.74 139.091 150.87C140.436 150.856 141.728 150.339 142.711 149.42C143.19 148.974 143.569 148.432 143.823 147.828C144.076 147.225 144.198 146.574 144.181 145.92C144.224 144.951 143.931 143.997 143.351 143.22C142.758 142.492 142.027 141.887 141.201 141.44C140.331 140.94 139.331 140.37 138.201 139.72C136.986 138.934 135.906 137.958 135.001 136.83C134.272 135.752 133.992 134.431 134.221 133.15C134.285 132.266 134.512 131.401 134.891 130.6C135.288 129.782 135.826 129.041 136.481 128.41C137.138 127.754 137.916 127.231 138.771 126.87C139.631 126.506 140.557 126.322 141.491 126.33C142.486 126.383 143.466 126.599 144.391 126.97C145.208 127.293 146.055 127.531 146.921 127.68C147.246 127.655 147.561 127.558 147.843 127.395C148.125 127.232 148.367 127.008 148.551 126.74L149.071 133.84H147.721C147.353 132.281 146.615 130.834 145.571 129.62C145.112 129.053 144.531 128.597 143.871 128.286C143.212 127.974 142.49 127.815 141.761 127.82C140.625 127.798 139.52 128.189 138.651 128.92C138.229 129.261 137.884 129.688 137.64 130.173C137.395 130.657 137.256 131.188 137.231 131.73C137.183 132.241 137.252 132.757 137.434 133.237C137.616 133.717 137.906 134.149 138.281 134.5C139.509 135.547 140.851 136.453 142.281 137.2C143.721 137.923 144.989 138.946 146.001 140.2C146.898 141.437 147.342 142.944 147.261 144.47C147.281 145.538 147.086 146.599 146.686 147.589C146.285 148.58 145.689 149.479 144.932 150.233C144.176 150.987 143.274 151.58 142.282 151.976C141.291 152.373 140.229 152.564 139.161 152.54C137.847 152.48 136.562 152.139 135.391 151.54C134.6 151.054 133.689 150.798 132.761 150.8C132.368 150.899 132.008 151.103 131.721 151.39C131.434 151.677 131.23 152.037 131.131 152.43H130.581L130.791 144.64ZM146.531 150.94L146.191 152.08H154.501L154.841 150.94C153.201 150.94 152.351 150.6 152.281 149.8C152.419 149.022 152.715 148.28 153.151 147.62L155.711 143.08H164.221L164.501 148.62V149C164.501 149.853 164.311 150.393 163.931 150.62C163.165 150.918 162.34 151.038 161.521 150.97L161.181 152.11H170.731L171.081 150.97H170.381C170.039 151.016 169.691 150.989 169.36 150.891C169.029 150.793 168.722 150.625 168.461 150.4C168.069 149.734 167.871 148.972 167.891 148.2L166.501 126.33L162.971 127.47L150.791 148C150.324 148.862 149.688 149.62 148.921 150.23C148.217 150.705 147.38 150.943 146.531 150.91V150.94ZM164.051 141.45H156.681L163.431 129.72L164.051 141.45ZM204.051 133.63C203.875 132.572 203.505 131.555 202.961 130.63C202.513 129.829 201.882 129.144 201.121 128.63C200.418 128.176 199.621 127.886 198.791 127.78C197.479 127.626 196.152 127.892 195.001 128.54C193.588 129.348 192.383 130.475 191.481 131.83C190.601 133.153 189.854 134.56 189.251 136.03C188.479 137.852 188.006 139.787 187.851 141.76C187.522 143.826 187.907 145.942 188.941 147.76C189.387 148.46 189.989 149.047 190.701 149.474C191.412 149.9 192.214 150.156 193.041 150.22C194.673 150.366 196.309 149.988 197.711 149.14C199.39 148.206 200.825 146.891 201.901 145.3L202.901 145.96C201.621 147.998 199.868 149.696 197.791 150.91C196.011 151.969 193.961 152.487 191.891 152.4C190.384 152.342 188.932 151.822 187.731 150.91C186.453 149.905 185.482 148.56 184.931 147.03C184.258 145.196 183.999 143.236 184.171 141.29C184.311 139.341 184.802 137.434 185.621 135.66C186.425 133.885 187.509 132.251 188.831 130.82C190.089 129.43 191.603 128.296 193.291 127.48C194.865 126.694 196.602 126.29 198.361 126.3C199.502 126.348 200.632 126.546 201.721 126.89C202.402 127.117 203.097 127.301 203.801 127.44C204.121 127.41 204.428 127.303 204.698 127.129C204.968 126.955 205.192 126.719 205.351 126.44L205.491 133.6L204.051 133.63ZM210.971 138.55C210.33 140.663 209.948 142.845 209.831 145.05C209.756 146.563 210.162 148.062 210.991 149.33C211.34 149.81 211.789 150.209 212.307 150.499C212.825 150.789 213.399 150.963 213.991 151.01C215.202 151.142 216.427 150.957 217.544 150.471C218.661 149.985 219.632 149.216 220.361 148.24C222.102 146.042 223.427 143.544 224.271 140.87C225.015 138.549 225.429 136.136 225.501 133.7C225.534 132.213 225.112 130.751 224.291 129.51C223.892 128.933 223.351 128.468 222.721 128.16C222.09 127.852 221.391 127.711 220.691 127.75C219.608 127.807 218.551 128.097 217.591 128.601C216.631 129.105 215.792 129.811 215.131 130.67C213.224 132.989 211.806 135.669 210.961 138.55H210.971ZM207.271 137.13C207.981 135.104 209.048 133.221 210.421 131.57C211.716 129.998 213.31 128.7 215.111 127.75C216.751 126.853 218.583 126.366 220.451 126.33C222.12 126.267 223.761 126.767 225.111 127.75C226.434 128.732 227.47 130.051 228.111 131.57C228.781 133.151 229.122 134.853 229.111 136.57C229.109 137.953 228.904 139.327 228.501 140.65C228.097 142.02 227.523 143.334 226.791 144.56C226.103 145.739 225.292 146.842 224.371 147.85C223.014 149.334 221.375 150.534 219.551 151.38C218.084 152.077 216.474 152.42 214.851 152.38C213.729 152.35 212.622 152.119 211.581 151.7C210.584 151.288 209.688 150.668 208.951 149.88C208.146 149.04 207.505 148.056 207.061 146.98C206.585 145.558 206.305 144.078 206.231 142.58C206.278 140.706 206.615 138.851 207.231 137.08L207.271 137.13ZM250.151 126.74H258.041L257.731 127.89C257.243 127.837 256.75 127.901 256.291 128.074C255.833 128.248 255.421 128.528 255.091 128.89C254.493 129.777 254.075 130.772 253.861 131.82L251.501 140.66C251.001 142.66 250.501 144.32 250.141 145.56C249.78 146.694 249.262 147.771 248.601 148.76C247.089 150.73 244.874 152.039 242.419 152.412C239.963 152.785 237.459 152.193 235.431 150.76C234.698 150.141 234.123 149.356 233.753 148.471C233.383 147.587 233.228 146.626 233.301 145.67C233.372 144.404 233.567 143.148 233.881 141.92C234.281 140.18 234.691 138.54 235.111 137C235.531 135.46 235.988 133.827 236.481 132.1C236.736 131.291 236.897 130.456 236.961 129.61C236.961 128.48 236.071 127.92 234.271 127.92L234.611 126.77H244.201L243.851 127.92C243.354 127.868 242.852 127.931 242.384 128.105C241.916 128.278 241.494 128.557 241.151 128.92C240.562 129.802 240.173 130.802 240.011 131.85C239.901 132.4 239.541 133.72 238.941 135.79C238.341 137.86 237.801 139.86 237.331 141.79C236.949 143.141 236.711 144.529 236.621 145.93C236.583 146.603 236.691 147.276 236.936 147.904C237.181 148.532 237.558 149.1 238.041 149.57C239.071 150.474 240.412 150.943 241.781 150.88C242.865 150.895 243.933 150.625 244.88 150.099C245.828 149.573 246.621 148.808 247.181 147.88C247.758 146.989 248.202 146.019 248.501 145C248.781 144 249.171 142.6 249.681 140.69L251.931 132.1L252.241 130.96C252.366 130.544 252.437 130.114 252.451 129.68C252.451 128.44 251.591 127.85 249.891 127.92L250.161 126.77L250.151 126.74ZM265.381 126.74H259.781L259.501 127.89C260.263 127.866 261.022 127.999 261.731 128.28C261.93 128.413 262.088 128.598 262.189 128.815C262.29 129.032 262.328 129.272 262.301 129.51C262.23 130.378 262.069 131.236 261.821 132.07L258.011 146.27C257.738 147.467 257.272 148.612 256.631 149.66C256.341 150.076 255.95 150.411 255.496 150.635C255.041 150.859 254.537 150.964 254.031 150.94L253.681 152.08H261.501L261.851 150.94C260.161 150.94 259.291 150.33 259.221 149.1C259.312 148.143 259.486 147.197 259.741 146.27L263.611 131.52L273.201 152.15H273.501L278.831 131.8C279.084 130.729 279.528 129.713 280.141 128.8C280.498 128.449 280.93 128.183 281.405 128.022C281.879 127.861 282.384 127.809 282.881 127.87L283.151 126.72H275.051L274.781 127.87C275.52 127.812 276.261 127.936 276.941 128.23C277.148 128.364 277.314 128.553 277.422 128.775C277.53 128.997 277.574 129.244 277.551 129.49C277.48 130.359 277.316 131.217 277.061 132.05L273.641 144.83L265.361 126.72L265.381 126.74ZM285.811 126.74H304.671L305.261 133.42L304.051 133.7C303.729 132.153 302.993 130.722 301.921 129.56C301.41 129.014 300.79 128.583 300.1 128.296C299.411 128.008 298.668 127.869 297.921 127.89C297.091 127.89 296.591 128.36 296.431 129.31L291.831 146.75C291.571 147.586 291.384 148.442 291.271 149.31C291.28 149.557 291.35 149.799 291.473 150.013C291.597 150.227 291.771 150.408 291.981 150.54C292.644 150.858 293.378 150.996 294.111 150.94L293.771 152.08H283.771L284.051 150.94C284.565 151.027 285.091 151.007 285.597 150.881C286.103 150.756 286.577 150.527 286.991 150.21C287.73 149.285 288.232 148.193 288.451 147.03L293.051 129.44C293.119 129.144 293.166 128.843 293.191 128.54C293.204 128.453 293.197 128.365 293.17 128.282C293.143 128.198 293.097 128.122 293.036 128.059C292.976 127.997 292.901 127.949 292.818 127.919C292.736 127.89 292.648 127.88 292.561 127.89C290.782 127.918 289.055 128.491 287.611 129.53C286.007 130.621 284.563 131.93 283.321 133.42L282.221 132.8L285.821 126.74H285.811ZM301.621 150.94L301.281 152.08H310.971L311.321 150.94C310.57 150.994 309.816 150.871 309.121 150.58C308.896 150.438 308.713 150.239 308.588 150.004C308.464 149.769 308.403 149.506 308.411 149.24C308.411 148.97 308.491 148.75 308.511 148.59C308.531 148.43 308.561 148.24 308.581 148.03L310.831 139.9H313.461L316.711 152.08H322.811V150.94C321.958 150.998 321.112 150.754 320.421 150.25C319.746 149.587 319.277 148.743 319.071 147.82C318.404 145.56 317.901 143.76 317.561 142.42C317.201 141.09 316.971 140.24 316.851 139.9C318.926 139.661 320.876 138.784 322.431 137.39C323.143 136.798 323.727 136.067 324.149 135.241C324.57 134.416 324.819 133.514 324.881 132.59C325.006 131.757 324.898 130.905 324.568 130.13C324.237 129.355 323.699 128.687 323.011 128.2C321.349 127.151 319.404 126.641 317.441 126.74H307.351L307.071 127.89C307.812 127.838 308.556 127.961 309.241 128.25C309.466 128.402 309.644 128.613 309.757 128.86C309.87 129.107 309.913 129.38 309.881 129.65C309.868 130.163 309.798 130.673 309.671 131.17L305.411 147.17C305.202 148.267 304.728 149.297 304.031 150.17C303.699 150.457 303.313 150.676 302.896 150.813C302.479 150.951 302.039 151.004 301.601 150.97L301.621 150.94ZM311.181 138.24L312.981 131.45C313.18 130.685 313.444 129.939 313.771 129.22C313.994 128.771 314.37 128.417 314.831 128.22C315.521 127.963 316.256 127.85 316.991 127.89C318.107 127.821 319.208 128.178 320.071 128.89C320.484 129.231 320.812 129.663 321.029 130.153C321.246 130.642 321.346 131.175 321.321 131.71C321.312 132.599 321.146 133.479 320.831 134.31C320.544 135.155 320.084 135.932 319.481 136.59C318.354 137.717 316.601 138.283 314.221 138.29L311.181 138.24ZM337.501 139.9L344.391 131.59C345.03 130.888 345.472 130.029 345.671 129.1C345.671 128.29 344.891 127.89 343.321 127.89L343.591 126.74H352.181L351.831 127.89C350.858 127.842 349.9 128.135 349.121 128.72C348.059 129.579 347.109 130.566 346.291 131.66L338.161 141.59L336.601 147.41C336.465 148.038 336.362 148.672 336.291 149.31C336.291 149.573 336.36 149.832 336.492 150.061C336.623 150.289 336.813 150.478 337.041 150.61C337.829 150.904 338.673 151.017 339.511 150.94L339.201 152.08H328.601L328.951 150.94C330.018 151.068 331.093 150.777 331.951 150.13C332.66 149.172 333.139 148.063 333.351 146.89L334.631 141.89L331.801 131.19C331.61 130.21 331.173 129.294 330.531 128.53C329.768 128.007 328.838 127.786 327.921 127.91L328.201 126.76H338.401L338.051 127.91C336.001 127.68 334.951 128.26 334.901 129.67C334.992 130.349 335.143 131.018 335.351 131.67L337.501 139.9ZM378.691 133.63C378.515 132.572 378.145 131.555 377.601 130.63C377.152 129.832 376.526 129.148 375.771 128.63C375.064 128.176 374.265 127.885 373.431 127.78C372.119 127.626 370.792 127.893 369.641 128.54C368.229 129.346 367.027 130.473 366.131 131.83C365.251 133.153 364.504 134.56 363.901 136.03C363.13 137.866 362.657 139.814 362.501 141.8C362.177 143.866 362.561 145.98 363.591 147.8C364.039 148.5 364.643 149.087 365.356 149.514C366.07 149.941 366.872 150.196 367.701 150.26C369.333 150.405 370.969 150.027 372.371 149.18C374.048 148.244 375.482 146.929 376.561 145.34L377.561 146C376.287 148.042 374.532 149.741 372.451 150.95C370.671 152.01 368.621 152.528 366.551 152.44C365.047 152.382 363.598 151.862 362.401 150.95C361.119 149.948 360.148 148.602 359.601 147.07C358.93 145.236 358.667 143.277 358.831 141.33C358.975 139.381 359.469 137.473 360.291 135.7C361.095 133.928 362.175 132.294 363.491 130.86C364.75 129.467 366.268 128.333 367.961 127.52C369.535 126.734 371.272 126.33 373.031 126.34C374.169 126.387 375.296 126.585 376.381 126.93C377.062 127.156 377.757 127.34 378.461 127.48C378.782 127.452 379.092 127.346 379.364 127.172C379.635 126.997 379.861 126.76 380.021 126.48L380.161 133.64L378.691 133.63ZM377.971 152.08H396.451L399.221 145.85L397.941 145.33C397.125 146.542 396.153 147.641 395.051 148.6C394.084 149.412 392.966 150.024 391.761 150.4C390.408 150.799 389.001 150.981 387.591 150.94C386.934 150.987 386.275 150.874 385.671 150.61C385.489 150.51 385.335 150.366 385.223 150.192C385.112 150.017 385.045 149.817 385.031 149.61C385.144 148.797 385.224 148.277 385.271 148.05L389.601 131.82C389.826 130.771 390.247 129.774 390.841 128.88C391.169 128.517 391.578 128.237 392.036 128.063C392.493 127.889 392.985 127.827 393.471 127.88L393.751 126.73H384.061L383.781 127.88C384.531 127.822 385.284 127.939 385.981 128.22C386.19 128.357 386.356 128.549 386.462 128.775C386.568 129.001 386.609 129.252 386.581 129.5C386.51 130.368 386.349 131.226 386.101 132.06L382.191 147.06C381.984 147.766 381.73 148.458 381.431 149.13C381.191 149.664 380.815 150.126 380.341 150.47C379.739 150.831 379.042 151.005 378.341 150.97L378.001 152.11L377.971 152.08ZM419.261 126.74H427.151L426.841 127.89C426.352 127.838 425.857 127.902 425.397 128.075C424.937 128.249 424.524 128.528 424.191 128.89C423.601 129.781 423.184 130.775 422.961 131.82L420.611 140.68C420.101 142.68 419.611 144.34 419.241 145.58C418.889 146.717 418.37 147.796 417.701 148.78C416.19 150.75 413.974 152.059 411.519 152.432C409.063 152.805 406.559 152.213 404.531 150.78C403.802 150.158 403.23 149.373 402.86 148.489C402.49 147.605 402.333 146.646 402.401 145.69C402.477 144.424 402.675 143.168 402.991 141.94C403.378 140.2 403.788 138.56 404.221 137.02C404.651 135.49 405.101 133.86 405.591 132.12C405.846 131.311 406.007 130.476 406.071 129.63C406.071 128.5 405.171 127.94 403.371 127.94L403.721 126.79H413.311L412.961 127.94C412.464 127.888 411.962 127.951 411.494 128.125C411.026 128.298 410.604 128.577 410.261 128.94C409.664 129.818 409.274 130.82 409.121 131.87C409.001 132.42 408.651 133.74 408.051 135.81C407.451 137.88 406.911 139.88 406.441 141.81C406.054 143.16 405.816 144.548 405.731 145.95C405.693 146.623 405.801 147.296 406.046 147.924C406.291 148.552 406.668 149.12 407.151 149.59C408.178 150.492 409.515 150.962 410.881 150.9C411.965 150.917 413.034 150.648 413.982 150.122C414.93 149.595 415.722 148.829 416.281 147.9C416.854 147.018 417.299 146.058 417.601 145.05C417.881 144.05 418.271 142.65 418.781 140.74L421.031 132.15C421.091 131.9 421.201 131.52 421.341 131.01C421.464 130.594 421.531 130.164 421.541 129.73C421.541 128.49 420.691 127.9 418.981 127.97L419.261 126.82V126.74ZM432.501 139.17L430.041 148.24C430.041 148.42 430.041 148.59 429.981 148.74C429.921 148.89 429.921 149.08 429.871 149.31C429.847 149.575 429.901 149.842 430.028 150.077C430.154 150.311 430.346 150.504 430.581 150.63C431.24 150.868 431.941 150.973 432.641 150.94C433.895 150.953 435.146 150.802 436.361 150.49C437.476 150.193 438.491 149.602 439.301 148.78C440.222 147.794 440.861 146.578 441.151 145.26C441.284 144.635 441.354 143.999 441.361 143.36C441.361 140.567 439.481 139.17 435.721 139.17H432.501ZM432.881 137.75H435.881C437.035 137.781 438.188 137.66 439.311 137.39C440.24 137.105 441.098 136.628 441.831 135.99C442.399 135.51 442.836 134.894 443.101 134.2C443.384 133.48 443.529 132.714 443.531 131.94C443.56 131.091 443.356 130.251 442.941 129.51C442.161 128.43 440.694 127.89 438.541 127.89C437.685 127.832 436.83 128.012 436.071 128.41C435.412 128.94 434.965 129.688 434.811 130.52L432.901 137.75H432.881ZM439.181 138.55V138.48C440.967 138.485 442.72 138 444.251 137.08C445.037 136.704 445.712 136.132 446.213 135.419C446.714 134.706 447.023 133.877 447.111 133.01C447.241 131.887 447.01 130.752 446.451 129.77C445.768 128.734 444.757 127.956 443.581 127.56C441.823 126.953 439.969 126.675 438.111 126.74H428.901L428.561 127.89C429.307 127.832 430.057 127.948 430.751 128.23C430.962 128.365 431.131 128.556 431.239 128.783C431.347 129.009 431.389 129.261 431.361 129.51C431.358 130.144 431.264 130.773 431.081 131.38L426.621 148.17C426.131 150.08 425.001 151.01 423.231 150.94L422.881 152.08H434.061C436.68 152.156 439.274 151.553 441.591 150.33C442.576 149.822 443.406 149.058 443.994 148.118C444.581 147.179 444.905 146.098 444.931 144.99C445.046 143.855 444.848 142.711 444.361 141.68C443.908 140.772 443.194 140.02 442.311 139.52C441.348 138.987 440.286 138.657 439.191 138.55H439.181Z" fill="#0055A1"/>
</g>
<defs>
<clipPath id="clip0_2_154">
<rect width="446.65" height="152.5" fill="white" transform="translate(0.5)"/>
</clipPath>
</defs>
</svg>
